# xmcd CD database file
#
# Track frame offsets:
#	150
#	14841
#	33711
#	51515
#	71359
#	87531
#	122296
#	139705
#	165091
#	186023
#	214130
#	240245
#	255945
#	278699
#
# Disc length: 3820 seconds
#
# Revision: 0
# Processed by: cddbd v1.5.1PL0 Copyright (c) Steve Scherf et al.
# Submitted via: CDex 1.51
#
DISCID=ba0eea0e
DTITLE=Ralph de Jongh and Hans van Lier - Brainmood
DYEAR=2005
DGENRE=Blues
TTITLE0=Dust my broom (R. Johnson)
TTITLE1=Preaching Blues (R. Johnson)
TTITLE2=Kansas City (W. Littlefield/K.C. Lovin')
TTITLE3=Terraplane Blues (R. Johnson)
TTITLE4=Satisfaction (M.Jagger/K. Richards)
TTITLE5=I Feel Like A Weasel (H. van Lier/R. de Jongh/L. Leeuw/D. Dario)
TTITLE6=Whiskey Don't Need It Anymore (R. de Jongh)
TTITLE7=Brainmood (H. van Lier/R. de Jongh/L. Leeuw/D. Dario)
TTITLE8=Me And The Devil Blues (R. Johnson)
TTITLE9=Third Stone From The Sun (J. Hendrix/R. de Jongh)
TTITLE10=Sweet Home Chigago (R. Johnson)
TTITLE11=Everybody Got To Go (R. de Jongh)
TTITLE12=Boogie (H. van Lier/R. de Jongh/L. Leeuw/D. Dario)
TTITLE13=Amazing (H. van Lier/R. de Jongh/L. Leeuw/D. Dario)
EXTD=YEAR: 2005
EXTT0=
EXTT1=
EXTT2=
EXTT3=
EXTT4=
EXTT5=
EXTT6=
EXTT7=
EXTT8=
EXTT9=
EXTT10=
EXTT11=
EXTT12=
EXTT13=
PLAYORDER=
